<svg xmlns="http://www.w3.org/2000/svg" xmlns:xlink="http://www.w3.org/1999/xlink" width="547" zoomAndPan="magnify" viewBox="0 0 410.25 175.5" height="234" preserveAspectRatio="xMidYMid meet" version="1.0"><defs><clipPath id="d506bb695e"><path d="M 5 5 L 408.546875 5 L 408.546875 162 L 5 162 Z M 5 5 " clip-rule="nonzero"/></clipPath><clipPath id="a17f34c64f"><path d="M 5 92 L 408.546875 92 L 408.546875 162 L 5 162 Z M 5 92 " clip-rule="nonzero"/></clipPath><clipPath id="84f362e34f"><path d="M 5 5 L 408.546875 5 L 408.546875 162 L 5 162 Z M 5 5 " clip-rule="nonzero"/></clipPath><clipPath id="2bafc4f94f"><path d="M 5 92 L 408.546875 92 L 408.546875 162 L 5 162 Z M 5 92 " clip-rule="nonzero"/></clipPath></defs><g clip-path="url(#d506bb695e)"><path fill="#e3f2ff" d="M 374.953125 96.363281 C 387.242188 72.621094 360.089844 48.386719 321.445312 47.394531 C 321.027344 35.738281 314.484375 23.351562 302.945312 14.738281 C 283.300781 0.0742188 257.347656 2.414062 247.886719 20.460938 C 220.605469 7.367188 188.300781 19.8125 174.1875 50.472656 C 174.097656 50.578125 174.003906 50.6875 173.914062 50.796875 C 151.753906 41.914062 124.929688 50.859375 116.910156 69.78125 C 74.839844 46.902344 5.6875 64.242188 5.6875 96.625 C 5.6875 125.164062 60.980469 143.601562 105.207031 128.554688 C 122.308594 162.097656 160.839844 169.132812 173.292969 141.71875 C 190.308594 161.832031 215.988281 167.007812 237.441406 156.722656 C 254.785156 165.035156 275.726562 163.527344 292.589844 150.394531 C 333.371094 174.0625 408.085938 158.667969 408.085938 126.75 C 408.085938 113.769531 394.757812 102.441406 374.953125 96.363281 " fill-opacity="1" fill-rule="nonzero"/></g><path fill="#ffffff" d="M 377.890625 84.707031 C 369.4375 72.980469 348.664062 64.550781 324.097656 64.023438 C 323.671875 53.90625 316.964844 43.144531 305.144531 35.667969 C 285.042969 22.957031 258.457031 24.9375 248.710938 40.632812 C 220.683594 29.246094 187.609375 40.121094 173.183594 66.699219 C 173.082031 66.785156 172.992188 66.882812 172.894531 66.976562 C 150.578125 59.410156 122.851562 66.71875 114.476562 83.460938 C 80.128906 67.65625 24.066406 73.53125 5.835938 94.144531 C 9.4375 63.023438 76.332031 47.714844 116.90625 69.78125 C 124.96875 50.761719 151.886719 41.953125 173.917969 50.800781 C 174.003906 50.6875 174.101562 50.574219 174.1875 50.472656 C 188.367188 19.664062 220.746094 7.425781 247.886719 20.460938 C 257.28125 2.476562 283.234375 0.0234375 302.945312 14.738281 C 314.484375 23.351562 321.027344 35.742188 321.445312 47.394531 C 352.832031 48.199219 377.890625 64.59375 377.890625 84.707031 " fill-opacity="1" fill-rule="nonzero"/><g clip-path="url(#a17f34c64f)"><path fill="#b6d5f0" d="M 408.085938 126.75 C 408.085938 158.363281 333.761719 174.28125 292.59375 150.394531 C 275.714844 163.527344 254.777344 165.039062 237.441406 156.71875 C 215.988281 167.015625 190.300781 161.824219 173.289062 141.71875 C 160.976562 168.882812 122.59375 162.472656 105.207031 128.550781 C 58.800781 144.351562 0.59375 123.203125 6.019531 92.808594 C 10.972656 107.886719 64.746094 115.8125 105.207031 108.234375 C 122.335938 126.679688 160.894531 130.496094 173.289062 115.464844 C 190.75 126.792969 216.554688 129.195312 237.441406 123.703125 C 254.925781 128.296875 275.828125 127.390625 292.59375 120.226562 C 304.734375 124.097656 325.71875 135.660156 345.167969 135.660156 C 373.691406 135.660156 395.902344 124.914062 404.363281 115.136719 C 406.769531 118.769531 408.085938 122.675781 408.085938 126.75 " fill-opacity="1" fill-rule="nonzero"/></g><path fill="#b6d5f0" d="M 377.882812 84.332031 C 377.882812 84.140625 377.882812 83.953125 377.878906 83.773438 C 377.898438 83.9375 377.894531 84.25 377.882812 84.332031 " fill-opacity="1" fill-rule="nonzero"/><path fill="#b6d5f0" d="M 360.1875 146.613281 C 333.640625 149.921875 296.726562 131.910156 283.054688 109.054688 C 303.695312 127.003906 333.3125 141.429688 360.1875 146.613281 " fill-opacity="1" fill-rule="nonzero"/><path fill="#b6d5f0" d="M 130.792969 95.378906 C 119.964844 113.765625 92.554688 121.757812 73.574219 112.152344 C 93.199219 113.796875 115.175781 107.359375 130.792969 95.378906 " fill-opacity="1" fill-rule="nonzero"/><path fill="#b6d5f0" d="M 268.894531 109.308594 C 253.097656 134.3125 224.164062 134.222656 208.460938 109.308594 C 227.070312 121.464844 250.28125 121.464844 268.894531 109.308594 " fill-opacity="1" fill-rule="nonzero"/><path fill="#b6d5f0" d="M 299.113281 58.875 C 283.316406 83.878906 254.378906 83.789062 238.679688 58.875 C 257.289062 71.03125 280.5 71.035156 299.113281 58.875 " fill-opacity="1" fill-rule="nonzero"/><g clip-path="url(#84f362e34f)"><path fill="#e3f2ff" d="M 374.953125 96.363281 C 387.242188 72.621094 360.089844 48.386719 321.445312 47.394531 C 321.027344 35.738281 314.484375 23.351562 302.945312 14.738281 C 283.300781 0.0742188 257.347656 2.414062 247.886719 20.460938 C 220.605469 7.367188 188.300781 19.8125 174.1875 50.472656 C 174.097656 50.578125 174.003906 50.6875 173.914062 50.796875 C 151.753906 41.914062 124.929688 50.859375 116.910156 69.78125 C 74.839844 46.902344 5.6875 64.242188 5.6875 96.625 C 5.6875 125.164062 60.980469 143.601562 105.207031 128.554688 C 122.308594 162.097656 160.839844 169.132812 173.292969 141.71875 C 190.308594 161.832031 215.988281 167.007812 237.441406 156.722656 C 254.785156 165.035156 275.726562 163.527344 292.589844 150.394531 C 333.371094 174.0625 408.085938 158.667969 408.085938 126.75 C 408.085938 113.769531 394.757812 102.441406 374.953125 96.363281 " fill-opacity="1" fill-rule="nonzero"/></g><path fill="#ffffff" d="M 377.890625 84.707031 C 369.4375 72.980469 348.664062 64.550781 324.097656 64.023438 C 323.671875 53.90625 316.964844 43.144531 305.144531 35.667969 C 285.042969 22.957031 258.457031 24.9375 248.710938 40.632812 C 220.683594 29.246094 187.609375 40.121094 173.183594 66.699219 C 173.082031 66.785156 172.992188 66.882812 172.894531 66.976562 C 150.578125 59.410156 122.851562 66.71875 114.476562 83.460938 C 80.128906 67.65625 24.066406 73.53125 5.835938 94.144531 C 9.4375 63.023438 76.332031 47.714844 116.90625 69.78125 C 124.96875 50.761719 151.886719 41.953125 173.917969 50.800781 C 174.003906 50.6875 174.101562 50.574219 174.1875 50.472656 C 188.367188 19.664062 220.746094 7.425781 247.886719 20.460938 C 257.28125 2.476562 283.234375 0.0234375 302.945312 14.738281 C 314.484375 23.351562 321.027344 35.742188 321.445312 47.394531 C 352.832031 48.199219 377.890625 64.59375 377.890625 84.707031 " fill-opacity="1" fill-rule="nonzero"/><g clip-path="url(#2bafc4f94f)"><path fill="#b6d5f0" d="M 408.085938 126.75 C 408.085938 158.363281 333.761719 174.28125 292.59375 150.394531 C 275.714844 163.527344 254.777344 165.039062 237.441406 156.71875 C 215.988281 167.015625 190.300781 161.824219 173.289062 141.71875 C 160.976562 168.882812 122.59375 162.472656 105.207031 128.550781 C 58.800781 144.351562 0.59375 123.203125 6.019531 92.808594 C 10.972656 107.886719 64.746094 115.8125 105.207031 108.234375 C 122.335938 126.679688 160.894531 130.496094 173.289062 115.464844 C 190.75 126.792969 216.554688 129.195312 237.441406 123.703125 C 254.925781 128.296875 275.828125 127.390625 292.59375 120.226562 C 304.734375 124.097656 325.71875 135.660156 345.167969 135.660156 C 373.691406 135.660156 395.902344 124.914062 404.363281 115.136719 C 406.769531 118.769531 408.085938 122.675781 408.085938 126.75 " fill-opacity="1" fill-rule="nonzero"/></g><path fill="#b6d5f0" d="M 377.882812 84.332031 C 377.882812 84.140625 377.882812 83.953125 377.878906 83.773438 C 377.898438 83.9375 377.894531 84.25 377.882812 84.332031 " fill-opacity="1" fill-rule="nonzero"/><path fill="#b6d5f0" d="M 360.1875 146.613281 C 333.640625 149.921875 296.726562 131.910156 283.054688 109.054688 C 303.695312 127.003906 333.3125 141.429688 360.1875 146.613281 " fill-opacity="1" fill-rule="nonzero"/><path fill="#b6d5f0" d="M 130.792969 95.378906 C 119.964844 113.765625 92.554688 121.757812 73.574219 112.152344 C 93.199219 113.796875 115.175781 107.359375 130.792969 95.378906 " fill-opacity="1" fill-rule="nonzero"/><path fill="#b6d5f0" d="M 268.894531 109.308594 C 253.097656 134.3125 224.164062 134.222656 208.460938 109.308594 C 227.070312 121.464844 250.28125 121.464844 268.894531 109.308594 " fill-opacity="1" fill-rule="nonzero"/><path fill="#b6d5f0" d="M 299.113281 58.875 C 283.316406 83.878906 254.378906 83.789062 238.679688 58.875 C 257.289062 71.03125 280.5 71.035156 299.113281 58.875 " fill-opacity="1" fill-rule="nonzero"/></svg>